<svg xmlns="http://www.w3.org/2000/svg" xmlns:xlink="http://www.w3.org/1999/xlink" viewBox="0 0 1273.985 930.629"><defs><style>.a{fill:#faf1e9;}.b{clip-path:url(#a);}.c{fill:#f7e5d6;}.d{fill:#c7cbe8;}.e{fill:#93b7fa;}.f{fill:#fff;}.aa,.g,.k{fill:none;}.g{stroke:#e8e9f9;stroke-linecap:round;stroke-linejoin:round;stroke-width:0.9px;}.h{fill:#e8e9f9;}.i{fill:#c5c9e6;}.j{fill:#3d415b;}.aa,.k{stroke:#3d415b;stroke-miterlimit:10;}.k{stroke-width:2.5px;}.l{fill:#e3bc9a;}.m{fill:#d8ac89;}.n{fill:#33ce81;}.o{fill:#303348;}.p{fill:#282c3c;}.q{fill:#6248aa;}.r{fill:#ddb28d;}.s{fill:#a9c9fa;}.t{fill:#82a7e7;}.u{fill:#8eb6ec;}.v{fill:#ecf2f5;}.w{fill:#29323d;}.x{fill:#4747cc;}.y{fill:#0fac94;}.z{fill:#583bf5;}.aa{stroke-width:2px;}</style><clipPath id="a"><path class="a" d="M319.652,306.35C490.684,203.156,571.051-113.9,834.681,75.55S989.026,654.308,736.389,748.44,158.919,789.391,67.213,614.545C-89.114,315.659,205.118,375.575,319.652,306.35Z" transform="translate(-22.438 -16.381)"/></clipPath></defs><path class="a" d="M319.652,306.35C490.684,203.156,571.051-113.9,834.681,75.55S989.026,654.308,736.389,748.44,158.919,789.391,67.213,614.545C-89.114,315.659,205.118,375.575,319.652,306.35Z" transform="translate(88.668 64.733)"/><g class="b" transform="translate(111.106 81.114)"><path class="c" d="M1057.952,495.29s-145.432-145.927-388.909-76.6S282.808,428.59,312.816,61.37c0,0-341.669,47.685-298.045,290.617C67.953,646.813,754.609,759.316,1057.952,495.29Z" transform="translate(-67.942 161.404)"/></g><path class="d" d="M158,45.544V187.956a22.233,22.233,0,0,0,22.233,22.233h303.64a22.233,22.233,0,0,0,22.283-22.233V45.544A22.184,22.184,0,0,0,483.873,23.36H180.035A22.184,22.184,0,0,0,158,45.544Z" transform="translate(624.373 92.312)"/><path class="e" d="M158,45.544v12.33H506.156V45.544A22.184,22.184,0,0,0,483.873,23.36H180.035A22.184,22.184,0,0,0,158,45.544Z" transform="translate(624.373 92.312)"/><circle class="f" cx="4.655" cy="4.655" r="4.655" transform="translate(1106.018 129.933)"/><path class="f" d="M219.61,31.319a4.7,4.7,0,1,0,2.189-4.473,4.7,4.7,0,0,0-2.189,4.473Z" transform="translate(867.74 103.269)"/><path class="f" d="M215.84,31.319a4.7,4.7,0,1,0,2.189-4.473,4.7,4.7,0,0,0-2.189,4.473Z" transform="translate(852.842 103.269)"/><rect class="f" width="78.188" height="64.818" rx="0.83" transform="translate(1087.103 235.702) rotate(180)"/><path class="f" d="M171.632,61.623h256.8a4.952,4.952,0,0,0,4.952-4.952h0a4.952,4.952,0,0,0-4.952-4.952h-256.8a4.952,4.952,0,0,0-4.952,4.952h0A4.952,4.952,0,0,0,171.632,61.623Z" transform="translate(658.674 204.383)"/><path class="f" d="M171.632,54.133H327.413a4.952,4.952,0,0,0,4.952-4.952h0a4.952,4.952,0,0,0-4.952-4.952H171.632a4.952,4.952,0,0,0-4.952,4.952h0A4.952,4.952,0,0,0,171.632,54.133Z" transform="translate(658.674 174.785)"/><path class="f" d="M183.6,47.093h96.509a4.952,4.952,0,0,0,4.952-4.952h0a4.952,4.952,0,0,0-4.952-4.952H183.6a4.952,4.952,0,0,0-4.952,4.952h0A4.952,4.952,0,0,0,183.6,47.093Z" transform="translate(705.976 146.965)"/><path class="g" d="M384,110.148a120.773,120.773,0,0,0-9.111-9.507c-6.289-5.4-13.469-14.855-36.445-7.923a47.144,47.144,0,0,0-5.2,2.03,16.985,16.985,0,0,1-14.855-4.209c-10.2-8.121-14.162-14.261-28.175-14.41-16.242,0-18.817,20.055-31.444,25.254-8.071,3.268-29.265,6.586-33.672,8.022Z" transform="translate(889.534 300.845)"/><path class="h" d="M332.016,77.57a247.268,247.268,0,0,0-17.975-18.718c-12.33-10.6-26.442-29.314-71.6-15.5a99.877,99.877,0,0,0-10.3,3.912C228.178,48.949,215.848,49,203.222,39c-20.055-15.945-27.928-27.977-55.41-28.373-31.988-.4-37.039,39.614-61.9,49.517-15.8,6.833-57.539,13.122-66.155,15.994Z" transform="translate(78.086 41.965)"/><path class="f" d="M142.895,53.456l2.327-6.586,2.278,6.586a23.025,23.025,0,0,0,12.825,13.073h0A23.125,23.125,0,0,0,147.5,79.551l-2.278,6.635-2.327-6.635A23.125,23.125,0,0,0,130.07,66.528h0a23.025,23.025,0,0,0,12.825-13.073Z" transform="translate(514.001 185.218)"/><path class="f" d="M185,129.8l2.327-6.635L189.6,129.8a23.273,23.273,0,0,0,12.825,13.023h0A23.174,23.174,0,0,0,189.6,155.891l-2.278,6.586L185,155.891a22.877,22.877,0,0,0-12.825-13.073h0A22.976,22.976,0,0,0,185,129.8Z" transform="translate(680.369 486.695)"/><path class="f" d="M55.3,119.937l1.535-4.357,1.486,4.357a15.351,15.351,0,0,0,8.467,8.616h0a15.2,15.2,0,0,0-8.467,8.616l-1.486,4.357L55.3,137.17a15.2,15.2,0,0,0-8.467-8.616h0a15.351,15.351,0,0,0,8.467-8.616Z" transform="translate(185.059 456.741)"/><path class="f" d="M201.867,75.648,203.4,71.29l1.535,4.357a15.2,15.2,0,0,0,8.467,8.616h0a14.855,14.855,0,0,0-8.467,8.616L203.4,97.237l-1.535-4.357a14.856,14.856,0,0,0-8.467-8.616h0A15.2,15.2,0,0,0,201.867,75.648Z" transform="translate(764.264 281.719)"/><path class="e" d="M106.751,0H251.292a14.261,14.261,0,0,1,14.261,14.261V92.35a14.211,14.211,0,0,1-14.261,14.211h-7.725v35.751l-35.751-35.751H106.751A14.211,14.211,0,0,1,92.49,92.35V14.261A14.261,14.261,0,0,1,106.751,0Z" transform="translate(365.495)"/><path class="f" d="M151.639,15.45H117.522A4.952,4.952,0,0,0,112.57,20.4h0a4.952,4.952,0,0,0,4.952,4.952h34.117a4.952,4.952,0,0,0,4.952-4.952h0A4.952,4.952,0,0,0,151.639,15.45Z" transform="translate(444.846 61.054)"/><path class="f" d="M174.559,10.63H111.722a4.952,4.952,0,0,0-4.952,4.952h0a4.952,4.952,0,0,0,4.952,4.952h62.837a4.952,4.952,0,0,0,4.952-4.952h0A4.952,4.952,0,0,0,174.559,10.63Z" transform="translate(421.926 42.007)"/><path class="f" d="M210.6,6h-108a4.952,4.952,0,0,0-4.952,4.952h0A4.952,4.952,0,0,0,102.6,15.9h108a4.952,4.952,0,0,0,4.952-4.952h0A4.952,4.952,0,0,0,210.6,6Z" transform="translate(385.886 23.71)"/><path class="i" d="M318.515,382.609H151.147a65.858,65.858,0,0,1-65.412-58.678L61.57,72.73H228.839l3.219,145.63Z" transform="translate(243.308 287.409)"/><path class="j" d="M321.686,388.49c-42.981,1.733-85.962,2.476-128.745,3.169H152.486a57.661,57.661,0,0,1-8.765-.743,67.886,67.886,0,0,1-17.034-4.655,71.7,71.7,0,0,1-43.031-52.587c-1.089-6.091-1.386-11.24-1.931-16.588L80.19,300.993l-3.417-31.84c-2.08-21.392-3.862-42.832-5.694-64.373q-5.645-64.372-10.3-128.745a3.813,3.813,0,0,1,3.565-4.11,3.912,3.912,0,0,1,4.11,3.367q7.725,64.026,14.36,128.2c2.278,21.342,4.605,42.733,6.635,64.125l3.12,32.087,1.585,16.044c.545,5.3.99,10.943,1.832,15.4a60.263,60.263,0,0,0,35.256,43.575,54.472,54.472,0,0,0,13.964,4.061,50.433,50.433,0,0,0,7.229.743h7.873l32.236.248c43.031.693,86.012,1.436,128.992,3.169a2.723,2.723,0,0,1,0,5.4Z" transform="translate(240.137 284.203)"/><line class="k" y2="177.42" transform="translate(466.156 674.723)"/><rect class="j" width="539.491" height="8.368" transform="translate(434.564 508.543)"/><path class="l" d="M105.144,178.85,99.45,199.4l27.878,8.467,8.715-25.353Z" transform="translate(392.999 706.767)"/><path class="l" d="M156.483,175.85v16.489h-24.66L129.05,175.85Z" transform="translate(509.971 694.912)"/><path class="m" d="M97.916,105.175l37.287,92,.792,2.03a14.063,14.063,0,0,0,13.122,8.765l106.165-.743a7.774,7.774,0,0,0,1.04-15.5L151.3,176.628l13.914,10.795L140.105,91.36a22.283,22.283,0,1,0-43.08,10.993A16.49,16.49,0,0,0,97.916,105.175Z" transform="translate(378.985 288.834)"/><path class="m" d="M126.155,97.273,162.4,96.53A17.232,17.232,0,0,1,178.594,114.6H125.66Z" transform="translate(496.574 381.46)"/><path class="n" d="M162.363,135.324l-58.034,14.162L94.821,97.74a25.056,25.056,0,0,1,21.342-29.166h0a25.5,25.5,0,0,1,27.631,16.242Z" transform="translate(373.216 269.876)"/><path class="o" d="M106.037,102.14l178.856,90.765a46.794,46.794,0,0,1,25.5,44.565l-13.469,229.76H269.494L232.5,221.378,93.46,123.531Z" transform="translate(369.329 403.63)"/><path class="p" d="M226.318,41.123S176.8,24.238,150.507,71.279a46.248,46.248,0,0,1-4.952,7.774c-5.5,6.239-16.638,17.678-28.819,21.54-48.329,14.855-78.931,106.264,17.331,114.434,120.426,9.9,154.643-13.617,137.41-61.6C259.2,119.163,270.19,94.85,270.19,94.85Z" transform="translate(280.838 150.855)"/><path class="q" d="M158.808,63.56,184.557,75a41.892,41.892,0,0,1,24.759,38.772c-.4,33.771-8.022,117.6-36.544,149.691h-86.8c-13.32-59.421-5.695-150.681-5.695-150.681a42.882,42.882,0,0,1,37.782-44.566Z" transform="translate(308.635 251.172)"/><path class="r" d="M105.566,127.833h0a16.638,16.638,0,0,0,18.42-14.459l7.081-55.212L97.99,54.3l-6.883,54.865a16.687,16.687,0,0,0,14.459,18.668Z" transform="translate(359.5 214.579)"/><path class="l" d="M40.208,0h1.337A40.258,40.258,0,0,1,81.852,40.258V88.834H0V40.258A40.258,40.258,0,0,1,40.258,0Z" transform="matrix(-0.992, -0.129, 0.129, -0.992, 533.589, 319.335)"/><path class="p" d="M91.9,97.269l6.883,14.36s9.21,7.972,11.835-12.082c2.228-17.034,14.558-14.063,14.558-14.063s42.288,31.988,67.1,9.9c19.807-17.331-12.033-49.022-48.279-56.648L96.406,59.834Z" transform="translate(363.164 153.09)"/><path class="l" d="M115.608,65.506a13.419,13.419,0,1,1-11.686-14.855,13.419,13.419,0,0,1,11.686,14.855Z" transform="translate(351.142 199.758)"/><path class="f" d="M95.866,56.747a2.426,2.426,0,0,1-2.674,2.08,2.327,2.327,0,0,1-2.08-2.674,2.494,2.494,0,1,1,4.952.594Z" transform="translate(359.941 213.221)"/><path class="f" d="M124.1,62.652,101.319,57.7s-1.089,9.9,11.389,11.686A9.26,9.26,0,0,0,124.1,62.652Z" transform="translate(400.291 228.015)"/><path class="j" d="M93.723,103.93h86.952L319.72,188.109a38.128,38.128,0,0,1,15.2,47.982L228.163,478.726l-30.9-3.615,57.391-234.167c-48.131-2.03-137.559-9.309-160.931-35.355C54.159,161.37,93.723,103.93,93.723,103.93Z" transform="translate(300.88 410.703)"/><path class="e" d="M179.087,73.18l-49.517,133.3H290.65L336.552,80.9a5.744,5.744,0,0,0-5.4-7.725Z" transform="translate(512.026 289.188)"/><path class="s" d="M190.508,73.18h-7.774a9.9,9.9,0,0,0-9.309,6.487L126.68,206.481h14.162Z" transform="translate(500.605 289.188)"/><path class="t" d="M11.636,0H160.684V12.825H0V11.637A11.637,11.637,0,0,1,11.637,0Z" transform="translate(802.23 508.543) rotate(180)"/><path class="u" d="M214.078,112.974H114.6a6.437,6.437,0,0,1-6.437-6.437h0A6.437,6.437,0,0,1,114.6,100.1h99.48Z" transform="translate(427.419 395.568)"/><path class="v" d="M148.564,96.735c-3.021,9.21.644,18.718,8.22,21.243s16.242-2.921,19.262-12.132-.644-18.718-8.22-21.243S151.634,87.525,148.564,96.735Z" transform="translate(582.905 331.887)"/><path class="l" d="M83.585,103.485l37.336,93.786.842,2.08a14.261,14.261,0,0,0,13.221,8.913l106.165-.693a7.873,7.873,0,0,0,1.089-15.647L137.212,176.374l14.063,10.993-24.759-97.8a22.481,22.481,0,1,0-42.684,13.914Z" transform="translate(325.279 287.999)"/><path class="l" d="M112.347,97.123l36.247-.743a17.381,17.381,0,0,1,16.192,18.371H112Z" transform="translate(442.594 380.868)"/><path class="n" d="M148.7,135.875l-58.034,14.41L81.154,97.6A25.452,25.452,0,0,1,102.5,67.888h0a25.452,25.452,0,0,1,27.631,16.489Z" transform="translate(319.094 267.195)"/><path class="w" d="M152.059,182.9l13.568,13.37,30.4,7.428a9.408,9.408,0,0,1,6.734,6.091l1.585,4.407a3.318,3.318,0,0,1-3.219,4.407l-97.945-2.377a5.5,5.5,0,0,1-5.4-5.992l7.725-27.73,14.855,3.516a18.074,18.074,0,0,0,14.855-1.535l5.249-3.07A9.9,9.9,0,0,1,152.059,182.9Z" transform="translate(386.343 712.03)"/><path class="w" d="M173.053,179.162l13.568,13.37,30.4,7.23a9.409,9.409,0,0,1,6.734,6.091l1.585,4.407a3.318,3.318,0,0,1-3.219,4.407l-88.685-1.832a5.6,5.6,0,0,1-5.4-5.992l2.327-28.373,10.943,3.664a17.975,17.975,0,0,0,14.855-1.585l5.249-3.021a9.557,9.557,0,0,1,11.636,1.634Z" transform="translate(505.929 696.501)"/><rect class="x" width="279.426" height="101.164" rx="3.09" transform="translate(0 200.496)"/><rect class="f" width="61.154" height="58.034" rx="0.97" transform="translate(30.404 222.036)"/><path class="f" d="M158.874,53.929H25.92a4.11,4.11,0,0,1-4.159-4.159h0A4.159,4.159,0,0,1,25.92,45.61H158.874a4.209,4.209,0,0,1,4.159,4.159h0a4.159,4.159,0,0,1-4.159,4.159Z" transform="translate(85.989 180.238)"/><rect class="f" width="54.717" height="8.319" rx="0.84" transform="translate(107.75 246.893)"/><rect class="f" width="63.778" height="8.319" rx="0.84" transform="translate(185.195 246.893)"/><path class="f" d="M125.6,62.429H25.92A4.159,4.159,0,0,1,21.76,58.27h0A4.11,4.11,0,0,1,25.92,54.11H125.6a4.159,4.159,0,0,1,4.159,4.159h0a4.209,4.209,0,0,1-4.159,4.159Z" transform="translate(85.989 213.828)"/><path class="y" d="M205.313,128.135s-41,0-32.483-42.09C172.829,85.847,215.86,90.3,205.313,128.135Z" transform="translate(678.373 340.002)"/><path class="y" d="M180.849,128.065s41.5,0,32.879-42.585C213.728,85.48,170.153,89.788,180.849,128.065Z" transform="translate(707.987 337.794)"/><path class="n" d="M192.446,139.871s30.255-30.255-5.5-57.341C186.949,82.53,158.378,117.984,192.446,139.871Z" transform="translate(694.458 326.136)"/><path class="z" d="M172.41,93.39h66.353l-10.547,46.051H183.849Z" transform="translate(681.318 369.052)"/><line class="aa" y2="324.982" transform="translate(721.863 516.911)"/></svg>