<svg xmlns="http://www.w3.org/2000/svg" viewBox="0 0 81.337 155.601"><path d="M57.033 100.853L21.1 144.485a1.29 1.29 0 0 1-2.193-1.294l16.734-44.165H18.477a1.291 1.291 0 0 1-1.142-1.889L35.73 62.066H8.45a1.29 1.29 0 0 1-1.148-1.88L37.868.7a1.29 1.29 0 0 1 1.147-.7h37.668a1.29 1.29 0 0 1 1.115 1.94l-18.1 31.036h20.35a1.29 1.29 0 0 1 1.087 1.984L55.054 75.8h19.874a1.29 1.29 0 0 1 .992 2.115L62.13 94.659" fill="#6248aa"/><path d="M17.335 97.136a1.29 1.29 0 0 0 1.142 1.889h17.164L18.907 143.19a1.288 1.288 0 0 0 .546 1.58c.036.022.074.038.112.056L57.131 87.9H37.755a1.291 1.291 0 0 1-1.142-1.889L55.008 50.94H32.467a1.29 1.29 0 0 1-1.148-1.88L56.526 0h-17.51a1.289 1.289 0 0 0-1.149.7L7.303 60.185a1.29 1.29 0 0 0 1.148 1.88H35.73z" fill="#876dd0"/><path d="M36.706 113.575l-1.845 14.923 13.668 6.269-13.847 5.863 1.405 14.972-12-9.06-12.263 8.7 1.846-14.924L0 134.055l13.847-5.863-1.405-14.972 11.645 9.093z" fill="#d8b00c"/><path d="M34.688 140.632l1.405 14.967-5.94-4.479-6.065-4.574V122.31l12.62-8.737-1.85 14.925 13.671 6.271z" fill="#edca38"/></svg>