<svg xmlns="http://www.w3.org/2000/svg" viewBox="0 0 103.792 145.819"><defs><style>.c{fill:#6248aa}.d{fill:#876dd0}</style></defs><path d="M86.18 67.522H73.04V36.736a23.595 23.595 0 0 0-47.189 0v30.786h-13.14V36.736a36.735 36.735 0 0 1 73.469 0z" fill="#f5d466"/><path d="M86.182 36.734v30.788H73.04V36.734A23.623 23.623 0 0 0 49.505 13.14V0a36.779 36.779 0 0 1 36.677 36.734z" fill="#ffee93"/><path class="c" d="M70.406 145.819H28.485A28.485 28.485 0 0 1 0 117.334v-52.15h98.891v52.149a28.485 28.485 0 0 1-28.485 28.486z"/><path class="d" d="M98.892 65.183v52.151a28.485 28.485 0 0 1-28.485 28.485h-20.9V65.183z"/><path class="d" d="M62.676 96.758a13.231 13.231 0 1 0-20.93 10.746v14.4a7.7 7.7 0 0 0 15.4 0v-14.4a13.2 13.2 0 0 0 5.53-10.746z"/><path class="c" d="M62.676 96.76a13.206 13.206 0 0 1-5.53 10.746v14.4a7.7 7.7 0 0 1-7.639 7.7V83.524A13.233 13.233 0 0 1 62.676 96.76z"/><path d="M93.306 13.796l-1.637 13.236 12.122 5.56-12.281 5.2 1.246 13.278-10.644-8.036-10.876 7.719 1.637-13.236-12.123-5.56 12.281-5.2-1.246-13.278 10.328 8.065z" fill="#d8b00c"/><path d="M91.514 37.794l1.246 13.274-5.268-3.972-5.378-4.058V21.544l11.192-7.749-1.639 13.237 12.125 5.562z" fill="#edca38"/></svg>