<svg xmlns="http://www.w3.org/2000/svg" viewBox="0 0 130.52 130.699"><defs><style>.a{fill:#6248aa}.c{fill:#f5d466}.d{fill:#d8b00c}</style></defs><path class="a" d="M128.608 23.122h-51.9a1.914 1.914 0 0 0-1.914 1.914v16.4a11.1 11.1 0 1 0 0 19.084v16.4a1.914 1.914 0 0 0 1.914 1.914h20.683a1.914 1.914 0 0 0 1.1-3.479 7.271 7.271 0 1 1 8.359 0 1.914 1.914 0 0 0 1.1 3.479h20.658a1.914 1.914 0 0 0 1.914-1.914V25.036a1.914 1.914 0 0 0-1.914-1.914z"/><path d="M128.605 23.122h-5.37v55.7h5.37a1.914 1.914 0 0 0 1.914-1.914V25.036a1.914 1.914 0 0 0-1.914-1.914z" fill="#876dd0"/><path class="a" d="M84.265 91.749a11.023 11.023 0 0 0-5.647 1.557v-16.4a1.914 1.914 0 0 0-1.914-1.914H56.022a1.914 1.914 0 0 0-1.1 3.479 7.271 7.271 0 1 1-8.359 0 1.914 1.914 0 0 0-1.1-3.479h-20.66a1.914 1.914 0 0 0-1.914 1.914v51.874a1.914 1.914 0 0 0 1.914 1.914h51.9a1.914 1.914 0 0 0 1.914-1.914v-16.4a11.094 11.094 0 1 0 5.648-20.641z"/><path class="c" d="M46.738 20.755a7.409 7.409 0 0 1 6.053 3.132 1.914 1.914 0 0 0 3.478-1.1V1.914A1.914 1.914 0 0 0 54.356 0H1.914A1.914 1.914 0 0 0 0 1.914v52.415a1.914 1.914 0 0 0 1.914 1.914h16.6a11.195 11.195 0 1 0 19.205 0h16.637a1.914 1.914 0 0 0 1.914-1.914V33.458a1.914 1.914 0 0 0-3.478-1.1 7.376 7.376 0 1 1-6.053-11.6z"/><path class="d" d="M43.257 21.63a7.367 7.367 0 1 0 0 12.981 7.364 7.364 0 0 1 0-12.981zM30.749 56.243a11.191 11.191 0 0 1-6.115 16.388 11.193 11.193 0 0 0 13.09-16.388zM54.356 0h-6.975a1.914 1.914 0 0 1 1.914 1.914v19.3a7.385 7.385 0 0 1 3.5 2.677 1.914 1.914 0 0 0 3.478-1.1V1.914A1.914 1.914 0 0 0 54.356 0zm.578 31.633a1.915 1.915 0 0 0-2.143.722 7.387 7.387 0 0 1-3.5 2.676v19.3a1.914 1.914 0 0 1-1.914 1.914h6.975a1.914 1.914 0 0 0 1.914-1.914V33.458a1.914 1.914 0 0 0-1.332-1.825z"/><path class="c" d="M128.605 74.996h-16.4a11.1 11.1 0 1 0-19.077 0H76.705a1.914 1.914 0 0 0-1.914 1.914v20.142a11.106 11.106 0 1 1 0 11.617v20.115a1.914 1.914 0 0 0 1.914 1.914h51.9a1.914 1.914 0 0 0 1.914-1.914V76.91a1.915 1.915 0 0 0-1.914-1.914z"/><path class="d" d="M128.605 74.997h-5.37v55.7h5.37a1.914 1.914 0 0 0 1.914-1.914V76.911a1.914 1.914 0 0 0-1.914-1.914z"/></svg>