<svg xmlns="http://www.w3.org/2000/svg" viewBox="0 0 130.52 130.699"><defs><style>.a{fill:#6248aa;}.b{fill:#876dd0;}.c{fill:#f5d466;}.d{fill:#d8b00c;}</style></defs><g transform="translate(-0.351)"><path class="a" d="M298.3,90.58H246.4a1.914,1.914,0,0,0-1.914,1.914v16.4a11.1,11.1,0,1,0,0,19.084v16.4a1.914,1.914,0,0,0,1.914,1.914h20.683a1.914,1.914,0,0,0,1.1-3.479,7.271,7.271,0,1,1,8.359,0,1.914,1.914,0,0,0,1.1,3.479H298.3a1.914,1.914,0,0,0,1.914-1.914V92.494A1.914,1.914,0,0,0,298.3,90.58Z" transform="translate(-169.341 -67.458)"/><path class="b" d="M488.484,90.58h-5.37v55.7h5.37a1.914,1.914,0,0,0,1.914-1.914V92.494A1.914,1.914,0,0,0,488.484,90.58Z" transform="translate(-359.528 -67.458)"/><path class="a" d="M151.394,310.545a11.023,11.023,0,0,0-5.647,1.557v-16.4a1.914,1.914,0,0,0-1.914-1.914H123.151a1.914,1.914,0,0,0-1.1,3.479,7.271,7.271,0,1,1-8.359,0,1.914,1.914,0,0,0-1.1-3.479H91.932a1.914,1.914,0,0,0-1.914,1.914v51.874a1.914,1.914,0,0,0,1.914,1.914h51.9a1.914,1.914,0,0,0,1.914-1.914v-16.4a11.094,11.094,0,1,0,5.648-20.641Z" transform="translate(-66.778 -218.796)"/><path class="c" d="M47.089,20.755a7.409,7.409,0,0,1,6.053,3.132,1.914,1.914,0,0,0,3.478-1.1V1.914A1.914,1.914,0,0,0,54.707,0H2.265A1.914,1.914,0,0,0,.351,1.914V54.329a1.914,1.914,0,0,0,1.914,1.914h16.6a11.195,11.195,0,1,0,19.205,0H54.707a1.914,1.914,0,0,0,1.914-1.914V33.458a1.914,1.914,0,0,0-3.478-1.1,7.376,7.376,0,1,1-6.053-11.6Z" transform="translate(0)"/><g transform="translate(24.985)"><path class="d" d="M138.123,82.179a7.367,7.367,0,1,0,0,12.981,7.364,7.364,0,0,1,0-12.981Z" transform="translate(-119.5 -60.549)"/><path class="d" d="M102.969,220.327a11.191,11.191,0,0,1-6.115,16.388,11.193,11.193,0,0,0,13.09-16.388Z" transform="translate(-96.854 -164.084)"/><path class="d" d="M192.939,0h-6.975a1.914,1.914,0,0,1,1.914,1.914v19.3a7.385,7.385,0,0,1,3.5,2.677,1.914,1.914,0,0,0,3.478-1.1V1.914A1.914,1.914,0,0,0,192.939,0Z" transform="translate(-163.217)"/><path class="d" d="M193.517,123.661a1.915,1.915,0,0,0-2.143.722,7.387,7.387,0,0,1-3.5,2.676v19.3a1.914,1.914,0,0,1-1.914,1.914h6.975a1.914,1.914,0,0,0,1.914-1.914V125.486A1.914,1.914,0,0,0,193.517,123.661Z" transform="translate(-163.217 -92.028)"/></g><path class="c" d="M347.152,244.861h-16.4a11.1,11.1,0,1,0-19.077,0H295.252a1.914,1.914,0,0,0-1.914,1.914v20.142a11.106,11.106,0,1,1,0,11.617v20.115a1.914,1.914,0,0,0,1.914,1.914h51.9a1.914,1.914,0,0,0,1.914-1.914V246.775A1.915,1.915,0,0,0,347.152,244.861Z" transform="translate(-218.196 -169.865)"/><path class="d" d="M488.484,293.793h-5.37v55.7h5.37a1.914,1.914,0,0,0,1.914-1.914V295.707A1.914,1.914,0,0,0,488.484,293.793Z" transform="translate(-359.528 -218.796)"/></g></svg>