<svg xmlns="http://www.w3.org/2000/svg" viewBox="0 0 81.337 155.601"><defs><style>.a{fill:#6248aa;}.b{fill:#876dd0;}.c{fill:#d8b00c;}.d{fill:#edca38;}</style></defs><g transform="translate(-1401.325 -2516.653)"><g transform="translate(1408.485 2516.653)"><path class="a" d="M174.865,100.853l-35.933,43.632a1.29,1.29,0,0,1-2.193-1.294l16.734-44.165H136.309a1.291,1.291,0,0,1-1.142-1.889l18.395-35.071H126.282a1.29,1.29,0,0,1-1.148-1.88L155.7.7a1.29,1.29,0,0,1,1.147-.7h37.668a1.29,1.29,0,0,1,1.115,1.94l-18.1,31.036h20.35a1.29,1.29,0,0,1,1.087,1.984L172.886,75.8H192.76a1.29,1.29,0,0,1,.992,2.115l-13.79,16.744" transform="translate(-124.992)"/><path class="b" d="M135.168,97.136a1.29,1.29,0,0,0,1.142,1.889h17.164l-16.734,44.165a1.288,1.288,0,0,0,.546,1.58c.036.022.074.038.112.056L174.964,87.9H155.588a1.291,1.291,0,0,1-1.142-1.889l18.395-35.071H150.3a1.29,1.29,0,0,1-1.148-1.88L174.359,0H156.849A1.289,1.289,0,0,0,155.7.7L125.136,60.185a1.29,1.29,0,0,0,1.148,1.88h27.279Z" transform="translate(-124.993)"/></g><path class="c" d="M323.678,83.62l-1.845,14.923,13.668,6.269-13.847,5.863,1.405,14.972-12-9.06-12.263,8.7,1.846-14.924L286.972,104.1l13.847-5.863-1.405-14.972,11.645,9.093Z" transform="translate(1114.353 2546.608)"/><path class="d" d="M356.1,111.186l1.405,14.967-5.94-4.479L345.5,117.1V92.864l12.62-8.737L356.27,99.052l13.671,6.271Z" transform="translate(1079.913 2546.099)"/></g></svg>