<svg xmlns="http://www.w3.org/2000/svg" viewBox="0 0 103.792 145.819"><defs><style>.a{fill:#f5d466;}.b{fill:#ffee93;}.c{fill:#6248aa;}.d{fill:#876dd0;}.e{fill:#d8b00c;}.f{fill:#edca38;}</style></defs><g transform="translate(-32.391 -12.451)"><path class="a" d="M228.827,113.855h-13.14V83.069a23.594,23.594,0,0,0-47.189,0v30.786h-13.14V83.069a36.735,36.735,0,0,1,73.469,0Z" transform="translate(-110.256 -33.882)"/><path class="b" d="M292.842,83.067v30.788H279.7V83.067a23.623,23.623,0,0,0-23.535-23.594V46.333A36.779,36.779,0,0,1,292.842,83.067Z" transform="translate(-174.269 -33.882)"/><path class="c" d="M190.939,305.553H149.018a28.485,28.485,0,0,1-28.485-28.485V224.918h98.891v52.149A28.485,28.485,0,0,1,190.939,305.553Z" transform="translate(-88.142 -147.283)"/><g transform="translate(68.606 77.634)"><path class="d" d="M305.551,224.914v52.151a28.485,28.485,0,0,1-28.485,28.485h-20.9V224.914Z" transform="translate(-242.874 -224.914)"/><path class="d" d="M246.212,288.4a13.231,13.231,0,1,0-20.93,10.746v14.4a7.7,7.7,0,0,0,15.4,0v-14.4A13.2,13.2,0,0,0,246.212,288.4Z" transform="translate(-219.751 -256.825)"/></g><path class="c" d="M269.336,288.4a13.206,13.206,0,0,1-5.53,10.746v14.4a7.7,7.7,0,0,1-7.639,7.7V275.164A13.233,13.233,0,0,1,269.336,288.4Z" transform="translate(-174.269 -179.189)"/><path class="e" d="M319.527,83.579,317.89,96.815l12.122,5.56-12.281,5.2,1.246,13.278-10.644-8.036-10.876,7.719,1.637-13.236-12.123-5.56,12.281-5.2-1.246-13.278,10.328,8.065Z" transform="translate(-193.83 -57.332)"/><path class="f" d="M354.9,108.126l1.246,13.274-5.268-3.972-5.378-4.058V91.876l11.192-7.749-1.639,13.237,12.125,5.562Z" transform="translate(-230.995 -57.881)"/></g></svg>