<svg xmlns="http://www.w3.org/2000/svg" viewBox="0 0 1273.985 930.629"><defs><style>.a{fill:#faf1e9}.e{fill:#93b7fa}.f{fill:#fff}.j{fill:#3d415b}.l{fill:#e3bc9a}.m{fill:#d8ac89}.n{fill:#33ce81}.p{fill:#282c3c}.y{fill:#0fac94}</style><clipPath id="a"><path class="a" d="M319.652 306.35C490.684 203.156 571.051-113.9 834.681 75.55s154.345 578.758-98.292 672.89-577.47 40.951-669.176-133.895C-89.114 315.659 205.118 375.575 319.652 306.35z" transform="translate(-22.438 -16.381)"/></clipPath></defs><path class="a" d="M408.32 371.083c171.032-103.194 251.399-420.25 515.029-230.8s154.345 578.758-98.292 672.89-577.47 40.951-669.176-133.895C-.446 380.392 293.786 440.308 408.32 371.083z"/><g transform="translate(111.106 81.114)" clip-path="url(#a)"><path d="M990.01 656.694s-145.432-145.927-388.909-76.6-386.235 9.9-356.227-357.32c0 0-341.669 47.685-298.045 290.617C.011 808.217 686.667 920.72 990.01 656.694z" fill="#f7e5d6"/></g><path d="M782.373 137.856v142.412a22.233 22.233 0 0 0 22.233 22.233h303.64a22.233 22.233 0 0 0 22.283-22.233V137.856a22.184 22.184 0 0 0-22.283-22.184H804.408a22.184 22.184 0 0 0-22.035 22.184z" fill="#c7cbe8"/><path class="e" d="M782.373 137.856v12.33h348.156v-12.33a22.184 22.184 0 0 0-22.283-22.184H804.408a22.184 22.184 0 0 0-22.035 22.184z"/><circle class="f" cx="4.655" cy="4.655" r="4.655" transform="translate(1106.018 129.933)"/><path class="f" d="M1087.35 134.588a4.7 4.7 0 1 0 2.189-4.473 4.7 4.7 0 0 0-2.189 4.473zm-18.668 0a4.7 4.7 0 1 0 2.189-4.473 4.7 4.7 0 0 0-2.189 4.473z"/><rect class="f" width="78.188" height="64.818" rx=".83" transform="rotate(180 543.552 117.851)"/><path class="f" d="M830.306 266.006h256.8a4.952 4.952 0 0 0 4.952-4.952 4.952 4.952 0 0 0-4.952-4.952h-256.8a4.952 4.952 0 0 0-4.952 4.952 4.952 4.952 0 0 0 4.952 4.952zm0-37.088h155.781a4.952 4.952 0 0 0 4.952-4.952 4.952 4.952 0 0 0-4.952-4.952H830.306a4.952 4.952 0 0 0-4.952 4.952 4.952 4.952 0 0 0 4.952 4.952zm59.27-34.86h96.509a4.952 4.952 0 0 0 4.952-4.952 4.952 4.952 0 0 0-4.952-4.952h-96.509a4.952 4.952 0 0 0-4.952 4.952 4.952 4.952 0 0 0 4.952 4.952z"/><path d="M1273.534 410.993a120.773 120.773 0 0 0-9.111-9.507c-6.289-5.4-13.469-14.855-36.445-7.923a47.144 47.144 0 0 0-5.2 2.03 16.985 16.985 0 0 1-14.855-4.209c-10.2-8.121-14.162-14.261-28.175-14.41-16.242 0-18.817 20.055-31.444 25.254-8.071 3.268-29.265 6.586-33.672 8.022z" stroke="#e8e9f9" stroke-linecap="round" stroke-linejoin="round" stroke-width=".9" fill="none"/><path d="M410.102 119.535a247.268 247.268 0 0 0-17.975-18.718c-12.33-10.6-26.442-29.314-71.6-15.5a99.877 99.877 0 0 0-10.3 3.912c-3.963 1.685-16.293 1.736-28.919-8.264-20.055-15.945-27.928-27.977-55.41-28.373-31.988-.4-37.039 39.614-61.9 49.517-15.8 6.833-57.539 13.122-66.155 15.994z" fill="#e8e9f9"/><path class="f" d="M656.896 238.674l2.327-6.586 2.278 6.586a23.025 23.025 0 0 0 12.825 13.073 23.125 23.125 0 0 0-12.825 13.022l-2.278 6.635-2.327-6.635a23.125 23.125 0 0 0-12.825-13.023 23.025 23.025 0 0 0 12.825-13.073zm208.473 377.821l2.327-6.635 2.273 6.635a23.273 23.273 0 0 0 12.825 13.023 23.174 23.174 0 0 0-12.825 13.068l-2.278 6.586-2.322-6.586a22.877 22.877 0 0 0-12.825-13.073 22.976 22.976 0 0 0 12.825-13.018zm-625.01-39.817l1.535-4.357 1.486 4.357a15.351 15.351 0 0 0 8.467 8.616 15.2 15.2 0 0 0-8.467 8.616l-1.486 4.357-1.535-4.356a15.2 15.2 0 0 0-8.467-8.616 15.351 15.351 0 0 0 8.467-8.616zm725.772-219.311l1.533-4.358 1.535 4.357a15.2 15.2 0 0 0 8.467 8.616 14.855 14.855 0 0 0-8.467 8.616l-1.535 4.358-1.535-4.357a14.856 14.856 0 0 0-8.467-8.616 15.2 15.2 0 0 0 8.469-8.616z"/><path class="e" d="M472.246 0h144.541a14.261 14.261 0 0 1 14.261 14.261V92.35a14.211 14.211 0 0 1-14.261 14.211h-7.725v35.751l-35.751-35.751H472.246a14.211 14.211 0 0 1-14.261-14.211V14.261A14.261 14.261 0 0 1 472.246 0z"/><path class="f" d="M596.485 76.504h-34.117a4.952 4.952 0 0 0-4.952 4.95 4.952 4.952 0 0 0 4.952 4.952h34.117a4.952 4.952 0 0 0 4.952-4.952 4.952 4.952 0 0 0-4.952-4.95zm0-23.867h-62.837a4.952 4.952 0 0 0-4.952 4.952 4.952 4.952 0 0 0 4.952 4.952h62.837a4.952 4.952 0 0 0 4.952-4.952 4.952 4.952 0 0 0-4.952-4.952zm.001-22.927h-108a4.952 4.952 0 0 0-4.952 4.952 4.952 4.952 0 0 0 4.952 4.948h108a4.952 4.952 0 0 0 4.952-4.952 4.952 4.952 0 0 0-4.952-4.948z"/><path d="M561.823 670.018H394.455a65.858 65.858 0 0 1-65.412-58.678l-24.165-251.201h167.269l3.219 145.63z" fill="#c5c9e6"/><path class="j" d="M561.823 672.693c-42.981 1.733-85.962 2.476-128.745 3.169h-40.455a57.661 57.661 0 0 1-8.765-.743 67.886 67.886 0 0 1-17.034-4.655 71.7 71.7 0 0 1-43.031-52.587c-1.089-6.091-1.386-11.24-1.931-16.588l-1.535-16.093-3.417-31.84c-2.08-21.392-3.862-42.832-5.694-64.373q-5.645-64.372-10.3-128.745a3.813 3.813 0 0 1 3.565-4.11 3.912 3.912 0 0 1 4.11 3.367q7.725 64.026 14.36 128.2c2.278 21.342 4.605 42.733 6.635 64.125l3.12 32.087 1.585 16.044c.545 5.3.99 10.943 1.832 15.4a60.263 60.263 0 0 0 35.256 43.575 54.472 54.472 0 0 0 13.964 4.061 50.433 50.433 0 0 0 7.229.743h7.873l32.236.248c43.031.693 86.012 1.436 128.992 3.169a2.723 2.723 0 0 1 0 5.4z"/><path stroke-width="2.5" stroke="#3d415b" stroke-miterlimit="10" fill="none" d="M466.156 674.723v177.42"/><path class="j" d="M434.564 508.543h539.491v8.368H434.564z"/><path class="l" d="M498.143 885.617l-5.694 20.55 27.878 8.467 8.715-25.353zm168.311-14.855v16.489h-24.66l-2.773-16.489z"/><path class="m" d="M476.901 394.009l37.287 92 .792 2.03a14.063 14.063 0 0 0 13.122 8.765l106.165-.743a7.774 7.774 0 0 0 1.04-15.5l-105.022-15.099 13.914 10.795-25.109-96.063a22.283 22.283 0 1 0-43.08 10.993 16.49 16.49 0 0 0 .891 2.822z"/><path class="m" d="M622.729 478.733l36.245-.743a17.232 17.232 0 0 1 16.194 18.07h-52.934z"/><path class="n" d="M535.579 405.2l-58.034 14.162-9.508-51.746a25.056 25.056 0 0 1 21.342-29.166 25.5 25.5 0 0 1 27.631 16.242z"/><path d="M475.366 505.77l178.856 90.765a46.794 46.794 0 0 1 25.5 44.565l-13.469 229.76h-27.43l-36.994-245.852-139.04-97.847z" fill="#303348"/><path class="p" d="M507.156 191.978s-49.518-16.885-75.811 30.156a46.248 46.248 0 0 1-4.952 7.774c-5.5 6.239-16.638 17.678-28.819 21.54-48.329 14.855-78.931 106.264 17.331 114.434 120.426 9.9 154.643-13.617 137.41-61.6-12.277-34.264-1.287-58.577-1.287-58.577z"/><path d="M467.443 314.732l25.749 11.44a41.892 41.892 0 0 1 24.759 38.772c-.4 33.771-8.022 117.6-36.544 149.691h-86.8c-13.32-59.421-5.695-150.681-5.695-150.681a42.882 42.882 0 0 1 37.782-44.566z" fill="#6248aa"/><path d="M465.066 342.412a16.638 16.638 0 0 0 18.42-14.459l7.081-55.212-33.077-3.862-6.883 54.865a16.687 16.687 0 0 0 14.459 18.668z" fill="#ddb28d"/><path class="l" d="M493.703 314.148l-1.327-.172a40.272 40.272 0 0 1-34.79-45.136l6.265-48.187 81.198 10.559-6.267 48.187a40.272 40.272 0 0 1-45.129 34.743z"/><path class="p" d="M455.064 250.359l6.883 14.36s9.21 7.972 11.835-12.082c2.228-17.034 14.558-14.063 14.558-14.063s42.288 31.988 67.1 9.9c19.807-17.331-12.033-49.022-48.279-56.648l-47.591 21.098z"/><path class="l" d="M466.75 265.264a13.419 13.419 0 1 1-11.686-14.855 13.419 13.419 0 0 1 11.686 14.855z"/><path class="f" d="M455.807 269.968a2.426 2.426 0 0 1-2.674 2.08 2.327 2.327 0 0 1-2.08-2.674 2.494 2.494 0 1 1 4.952.594zm68.584 20.699l-22.781-4.952s-1.089 9.9 11.389 11.686a9.26 9.26 0 0 0 11.392-6.734z"/><path class="j" d="M394.603 514.633h86.952L620.6 598.812a38.128 38.128 0 0 1 15.2 47.982L529.043 889.429l-30.9-3.615 57.391-234.167c-48.131-2.03-137.559-9.309-160.931-35.355-39.564-44.219 0-101.659 0-101.659z"/><path class="e" d="M691.113 362.368l-49.517 133.3h161.08l45.902-125.58a5.744 5.744 0 0 0-5.4-7.725z"/><path d="M691.113 362.368h-7.774a9.9 9.9 0 0 0-9.309 6.487l-46.745 126.814h14.162z" fill="#a9c9fa"/><path d="M790.594 508.543H641.546v-12.825H802.23v1.188a11.637 11.637 0 0 1-11.637 11.637z" fill="#82a7e7"/><path d="M641.497 508.542h-99.478a6.437 6.437 0 0 1-6.437-6.437 6.437 6.437 0 0 1 6.437-6.437h99.48z" fill="#8eb6ec"/><path d="M731.469 428.622c-3.021 9.21.644 18.718 8.22 21.243s16.242-2.921 19.262-12.132-.644-18.718-8.22-21.243-16.192 2.922-19.262 12.132z" fill="#ecf2f5"/><path class="l" d="M408.864 391.484L446.2 485.27l.842 2.08a14.261 14.261 0 0 0 13.221 8.913l106.165-.693a7.873 7.873 0 0 0 1.089-15.647l-105.026-15.55 14.063 10.993-24.759-97.8a22.481 22.481 0 1 0-42.684 13.914z"/><path class="l" d="M554.941 477.991l36.247-.743a17.381 17.381 0 0 1 16.192 18.371h-52.786z"/><path class="n" d="M467.794 403.07l-58.034 14.41-9.512-52.685a25.452 25.452 0 0 1 21.346-29.712 25.452 25.452 0 0 1 27.631 16.489z"/><path d="M538.402 894.93l13.568 13.37 30.4 7.428a9.408 9.408 0 0 1 6.734 6.091l1.585 4.407a3.318 3.318 0 0 1-3.219 4.407l-97.945-2.377a5.5 5.5 0 0 1-5.4-5.992l7.725-27.73 14.855 3.516a18.074 18.074 0 0 0 14.855-1.535l5.249-3.07a9.9 9.9 0 0 1 11.593 1.485zm140.58-19.267l13.568 13.37 30.4 7.23a9.409 9.409 0 0 1 6.734 6.091l1.585 4.407a3.318 3.318 0 0 1-3.219 4.407l-88.685-1.832a5.6 5.6 0 0 1-5.4-5.992l2.327-28.373 10.943 3.664a17.975 17.975 0 0 0 14.855-1.585l5.249-3.021a9.557 9.557 0 0 1 11.636 1.634z" fill="#29323d"/><rect width="279.426" height="101.164" rx="3.09" transform="translate(0 200.496)" fill="#4747cc"/><rect class="f" width="61.154" height="58.034" rx=".97" transform="translate(30.404 222.036)"/><path class="f" d="M244.863 234.167H111.909a4.11 4.11 0 0 1-4.159-4.159 4.159 4.159 0 0 1 4.159-4.16h132.954a4.209 4.209 0 0 1 4.159 4.159 4.159 4.159 0 0 1-4.159 4.159z"/><rect class="f" width="54.717" height="8.319" rx=".84" transform="translate(107.75 246.893)"/><rect class="f" width="63.778" height="8.319" rx=".84" transform="translate(185.195 246.893)"/><path class="f" d="M211.589 276.257h-99.68a4.159 4.159 0 0 1-4.16-4.159 4.11 4.11 0 0 1 4.16-4.16h99.68a4.159 4.159 0 0 1 4.159 4.159 4.209 4.209 0 0 1-4.159 4.159z"/><path class="y" d="M883.686 468.137s-41 0-32.483-42.09c-.001-.198 43.03 4.255 32.483 42.09z"/><path class="y" d="M888.836 465.859s41.5 0 32.879-42.585c0 0-43.575 4.308-32.879 42.585z"/><path class="n" d="M886.904 466.007s30.255-30.255-5.5-57.341c.003 0-28.568 35.454 5.5 57.341z"/><path d="M853.728 462.442h66.353l-10.547 46.051h-44.367z" fill="#583bf5"/><path stroke-width="2" stroke="#3d415b" stroke-miterlimit="10" fill="none" d="M721.863 516.911v324.982"/></svg>