<svg width="212" height="70" viewBox="0 0 212 70" xmlns="http://www.w3.org/2000/svg"><path d="M16.053 50.46l7.753-7.753h15.748l6.04 21.202-29.54-13.45zM5.204 23.568L19.608 25.4v15.273c0 .148.017.293.047.432l-6.858 6.858-7.593-24.396zM19.608 21.3L6.691 19.657 19.608 6.74V21.3zm28.38-10.018l-11.95 12.11-12.363-1.574V4.692l24.313 6.59zM23.675 38.64V25.919l11.515 1.466 3.206 11.255h-14.72zm33.948 0H42.625L39.06 26.12l11.9-12.06 6.663 24.58zm-8.489 22.852l-5.35-18.785H57.12l-7.986 18.785zm13.11-21.35l-8.24-30.4a2.035 2.035 0 0 0-1.43-1.431L22.173.07a2.03 2.03 0 0 0-1.768.348c-.034.025-.063.054-.095.08l-.108-.106L.884 19.713l.002.002c-.042.042-.084.083-.123.129a2.034 2.034 0 0 0-.383 1.91l9.171 29.469a2.034 2.034 0 0 0 1.1 1.246l37.26 16.965a2.029 2.029 0 0 0 2.711-1.057l.003.002 11.237-26.43c.011-.014.024-.026.034-.04a2.034 2.034 0 0 0 .348-1.767zm33.22-11.554l-3.37 9.298h6.74l-3.37-9.298zm5.962 17.01l-1.33-3.662h-9.265l-1.361 3.662h-5.25l8.36-21.611h5.768l8.326 21.61h-5.248zm18.078-10.79c0-6.642 5.022-11.178 11.502-11.178 4.762 0 7.516 2.592 9.039 5.281l-3.953 1.944c-.907-1.749-2.851-3.143-5.086-3.143-3.921 0-6.772 3.014-6.772 7.096 0 4.082 2.85 7.095 6.772 7.095 2.235 0 4.179-1.36 5.086-3.143l3.953 1.912c-1.555 2.69-4.277 5.314-9.04 5.314-6.48 0-11.501-4.536-11.501-11.178m55.046 10.789v-15.13l-6.09 15.13h-2.01l-6.09-15.13v15.13h-4.602v-21.61h6.448l5.25 13.056 5.247-13.056h6.48v21.61zm21.87 0v-21.61h15.292v4.05H201.02v4.568h10.465v4.05H201.02v4.892h10.692v4.05z" fill="#FDFDFD" fill-rule="evenodd"/></svg>